<?xml version="1.0" encoding="utf-8"?>
<!-- Generator: Adobe Illustrator 24.0.0, SVG Export Plug-In . SVG Version: 6.00 Build 0)  -->
<svg version="1.1" id="Layer_1" xmlns="http://www.w3.org/2000/svg" xmlns:xlink="http://www.w3.org/1999/xlink" x="0px" y="0px"
	 viewBox="0 0 422 290" style="enable-background:new 0 0 422 290;" xml:space="preserve">
<style type="text/css">
	.st0{clip-path:url(#SVGID_2_);}
	.st1{opacity:0.3;fill:#FFFFFF;fill-opacity:0.1;enable-background:new    ;}
	.st2{fill:#FFFFFF;fill-opacity:0.1;}
	.st3{fill:#FFFFFF;fill-opacity:5.000000e-02;}
	.st4{fill:#35336B;}
	.st5{fill:#03003F;fill-opacity:0.5;}
	.st6{fill:#03003F;}
</style>
<g>
	<defs>
		<rect id="SVGID_1_" y="-150" width="440" height="440"/>
	</defs>
	<clipPath id="SVGID_2_">
		<use xlink:href="#SVGID_1_"  style="overflow:visible;"/>
	</clipPath>
	<g class="st0">
		<path class="st1" d="M220.1,290.2c121.6,0,220.1-98.5,220.1-220.1c0-121.6-98.5-220.1-220.1-220.1C98.5-150,0-51.5,0,70.1
			C0,191.7,98.5,290.2,220.1,290.2z"/>
		<path class="st1" d="M220.1,246.5c97.4,0,176.4-79,176.4-176.4c0-97.4-79-176.4-176.4-176.4c-97.4,0-176.4,79-176.4,176.4
			C43.7,167.5,122.7,246.5,220.1,246.5z"/>
		<path class="st2" d="M97,35.3c-0.2,0.7-0.4,1.3-0.4,2c-2.5,9.1-3.8,18.3-4.2,27.2c-0.4,10,0.4,20.1,2.2,29.7
			c8.9,45.9,42.8,85.2,91,98.8c39.2,11.2,79.6,2.5,110.2-19.8c13.8-10,25.6-23,34.6-37.9c5.6-9.4,10-19.6,13.2-30.6
			c2.9-10,4.5-20.1,4.7-29.9c0.7-17.8-2.5-35.5-8.7-51.5c-14-35.9-44.4-65.1-84.3-76.3c-43.5-12.3-87.6-0.7-119.1,26.5
			C117.7-10.6,103.9,10.3,97,35.3z"/>
		<path class="st3" d="M97,35.3c-0.2,0.7-0.4,1.3-0.4,2l251.3,37.5c0.7-17.8-2.5-35.5-8.7-51.5L136-26.5
			C117.7-10.6,103.9,10.3,97,35.3z"/>
		<path class="st3" d="M92.3,64.8c-0.4,10,0.4,20.1,2.2,29.7l200.9,78.9c13.8-10,25.6-23,34.6-37.9L92.3,64.8z"/>
		<path class="st4" d="M153.4,11.9c-2,7.4-1.1,14.9,2.2,21.2c3.6,6.7,9.8,12,17.6,14.3c15.2,4.2,31.2-4.7,35.5-19.8
			c1.1-3.6,1.3-7.4,0.9-10.9c-1.1-11.4-9.1-21.4-20.7-24.5C173.5-12.2,157.7-3.3,153.4,11.9z"/>
		<path class="st5" d="M156.6,22.4c-1.1,3.6-1.3,7.4-0.9,10.9c3.6,6.7,9.8,12,17.6,14.3c15.2,4.2,31.2-4.7,35.5-19.8
			c1.1-3.6,1.3-7.4,0.9-10.9c-3.6-6.7-9.8-12-17.6-14.3C176.6-1.9,160.8,7,156.6,22.4z"/>
		<path class="st4" d="M270.7,95.5c-3.1,5.4-3.8,11.2-2.5,16.7c1.3,5.8,5.1,11.2,10.7,14.3c10.9,6.2,24.8,2.5,31-8.3
			c1.6-2.7,2.5-5.4,2.9-8.3c1.3-8.9-2.9-18.1-11.2-23C290.8,81,277,84.8,270.7,95.5z"/>
		<path class="st5" d="M271,104.2c-1.6,2.7-2.5,5.4-2.9,8.3c1.3,5.8,5.1,11.2,10.7,14.3c10.9,6.2,24.8,2.5,31-8.3
			c1.6-2.7,2.5-5.4,2.9-8.3c-1.3-5.8-5.1-11.2-10.7-14.3C291.3,89.5,277.4,93.3,271,104.2z"/>
		<path class="st4" d="M250.7,130.8c-3.1,2.2-5.1,5.4-5.8,8.7c-0.9,3.6-0.2,7.6,2.2,10.9c4.5,6.5,13.2,8.3,19.8,3.8
			c1.6-1.1,2.9-2.5,3.8-3.8c3.1-4.7,3.3-10.9,0-15.8C265.8,127.9,257.1,126.3,250.7,130.8z"/>
		<path class="st5" d="M248.4,135.7c-1.6,1.1-2.9,2.5-3.8,3.8c-0.9,3.6-0.2,7.6,2.2,10.9c4.5,6.5,13.2,8.3,19.8,3.8
			c1.6-1.1,2.9-2.5,3.8-3.8c0.9-3.6,0.2-7.6-2.2-10.9C263.8,132.8,254.9,131.2,248.4,135.7z"/>
		<path class="st4" d="M215.7,14.8c-0.9,3.3-0.4,6.7,0.9,9.4c1.6,2.9,4.2,5.4,7.8,6.2c6.7,2,13.8-2,15.8-8.9
			c0.4-1.6,0.7-3.3,0.4-4.9c-0.4-5.1-4-9.6-9.1-10.9C224.6,4.1,217.4,8.1,215.7,14.8z"/>
		<path class="st6" d="M217,19.5c-0.4,1.6-0.7,3.3-0.4,4.9c1.6,2.9,4.2,5.4,7.8,6.2c6.7,2,13.8-2,15.8-8.9c0.4-1.6,0.7-3.3,0.4-4.9
			c-1.6-2.9-4.2-5.4-7.8-6.2C225.9,8.8,218.8,12.6,217,19.5z"/>
		<path class="st4" d="M122.2,124.5c-0.4,1.3-0.2,2.7,0.4,4c0.7,1.3,1.8,2.2,3.3,2.7c2.9,0.9,5.8-0.9,6.5-3.6c0.2-0.7,0.2-1.3,0.2-2
			c-0.2-2-1.8-4-3.8-4.5C126,120.1,123.1,121.8,122.2,124.5z"/>
		<path class="st5" d="M122.9,126.5c-0.2,0.7-0.2,1.3-0.2,2c0.7,1.3,1.8,2.2,3.3,2.7c2.9,0.9,5.8-0.9,6.5-3.6c0.2-0.7,0.2-1.3,0.2-2
			c-0.7-1.3-1.8-2.2-3.3-2.7C126.4,122.1,123.5,123.6,122.9,126.5z"/>
		<path class="st4" d="M169.5,123.2c-1.3,0.2-2.7,0.9-3.3,2c-0.9,1.1-1.3,2.5-1.1,4c0.4,2.9,3.1,4.9,6,4.5c0.7,0,1.3-0.4,1.8-0.7
			c1.8-1.1,2.9-3.1,2.5-5.4C175.1,124.7,172.4,122.7,169.5,123.2z"/>
		<path class="st5" d="M167.9,124.5c-0.7,0-1.3,0.4-1.8,0.7c-0.9,1.1-1.3,2.5-1.1,4c0.4,2.9,3.1,4.9,6,4.5c0.7,0,1.3-0.4,1.8-0.7
			c0.9-1.1,1.3-2.5,1.1-4C173.5,126.1,170.8,124.1,167.9,124.5z"/>
	</g>
</g>
</svg>
